# xmcd CD database file
#
# Track frame offsets:
#	150
#	19117
#	37330
#	54987
#	75920
#	101692
#	118195
#	137060
#	154607
#	173965
#
# Disc length: 2620 seconds
#
# Revision: 0
# Processed by: cddbd v1.5.1PL0 Copyright (c) Steve Scherf et al.
# Submitted via: CDex 1.51
#
DISCID=7c0a3a0a
DTITLE=井上慎二郎 - 欲求不満
DYEAR=1900
DGENRE=JPop
TTITLE0=Special Shower
TTITLE1=咲き誇れLady
TTITLE2=Let It "C"
TTITLE3=飛べ！日本の少女達
TTITLE4=バラッドを君に贈ろう
TTITLE5=満足への階段
TTITLE6=恋のシナリオライター
TTITLE7=遊び帝王
TTITLE8=お金がない
TTITLE9=My Little Feat
EXTD=
EXTT0=
EXTT1=
EXTT2=
EXTT3=
EXTT4=
EXTT5=
EXTT6=
EXTT7=
EXTT8=
EXTT9=
PLAYORDER=
